CodaCaption-Medium.ufo
<glyph name="percent" format="1">
  <advance width="2350"/>
  <unicode hex="0025"/>
  <outline>
    <contour>
      <point x="888" y="-4" type="line"/>
      <point x="1082" y="-4" type="line"/>
      <point x="1463" y="1580" type="line"/>
      <point x="1267" y="1580" type="line"/>
    </contour>
    <contour>
      <point x="1839" y="162" type="curve" smooth="yes"/>
      <point x="2094" y="162"/>
      <point x="2201" y="224"/>
      <point x="2201" y="475" type="curve" smooth="yes"/>
      <point x="2201" y="551"/>
      <point x="2201" y="658"/>
      <point x="2198" y="713" type="curve" smooth="yes"/>
      <point x="2187" y="971"/>
      <point x="2108" y="1031"/>
      <point x="1838" y="1031" type="curve" smooth="yes"/>
      <point x="1587" y="1031"/>
      <point x="1479" y="974"/>
      <point x="1479" y="717" type="curve" smooth="yes"/>
      <point x="1479" y="641"/>
      <point x="1479" y="534"/>
      <point x="1482" y="480" type="curve" smooth="yes"/>
      <point x="1492" y="220"/>
      <point x="1569" y="162"/>
    </contour>
    <contour>
      <point x="1824" y="304" type="curve" smooth="yes"/>
      <point x="1675" y="304"/>
      <point x="1657" y="316"/>
      <point x="1657" y="496" type="curve" smooth="yes"/>
      <point x="1657" y="531"/>
      <point x="1658" y="639"/>
      <point x="1658" y="689" type="curve" smooth="yes"/>
      <point x="1658" y="888"/>
      <point x="1678" y="889"/>
      <point x="1839" y="889" type="curve" smooth="yes"/>
      <point x="2008" y="889"/>
      <point x="2017" y="887"/>
      <point x="2017" y="685" type="curve" smooth="yes"/>
      <point x="2017" y="492" type="line" smooth="yes"/>
      <point x="2017" y="317"/>
      <point x="1999" y="304"/>
    </contour>
    <contour>
      <point x="513" y="588" type="curve" smooth="yes"/>
      <point x="768" y="588"/>
      <point x="876" y="649"/>
      <point x="876" y="902" type="curve" smooth="yes"/>
      <point x="876" y="981"/>
      <point x="875" y="1090"/>
      <point x="872" y="1146" type="curve" smooth="yes"/>
      <point x="860" y="1398"/>
      <point x="779" y="1457"/>
      <point x="513" y="1457" type="curve" smooth="yes"/>
      <point x="262" y="1457"/>
      <point x="153" y="1400"/>
      <point x="153" y="1143" type="curve" smooth="yes"/>
      <point x="153" y="1067"/>
      <point x="153" y="959"/>
      <point x="156" y="904" type="curve" smooth="yes"/>
      <point x="166" y="645"/>
      <point x="243" y="588"/>
    </contour>
    <contour>
      <point x="498" y="730" type="curve" smooth="yes"/>
      <point x="349" y="730"/>
      <point x="332" y="742"/>
      <point x="332" y="922" type="curve" smooth="yes"/>
      <point x="332" y="1115" type="line" smooth="yes"/>
      <point x="332" y="1315"/>
      <point x="352" y="1316"/>
      <point x="513" y="1316" type="curve" smooth="yes"/>
      <point x="682" y="1316"/>
      <point x="691" y="1313"/>
      <point x="691" y="1111" type="curve" smooth="yes"/>
      <point x="691" y="918" type="line" smooth="yes"/>
      <point x="691" y="743"/>
      <point x="673" y="730"/>
    </contour>
  </outline>
</glyph>
<glyph name="quotesingle" format="1">
  <advance width="500"/>
  <unicode hex="0027"/>
  <outline>
    <contour>
      <point x="269" y="920" type="curve" smooth="yes"/>
      <point x="275" y="943"/>
      <point x="350" y="1301"/>
      <point x="350" y="1387" type="curve" smooth="yes"/>
      <point x="350" y="1473"/>
      <point x="312" y="1515"/>
      <point x="251" y="1515" type="curve" smooth="yes"/>
      <point x="176" y="1515"/>
      <point x="152" y="1473"/>
      <point x="152" y="1374" type="curve" smooth="yes"/>
      <point x="152" y="1292"/>
      <point x="229" y="948"/>
      <point x="234" y="925" type="curve" smooth="yes"/>
      <point x="236" y="920"/>
      <point x="250" y="915"/>
      <point x="252" y="915" type="curve" smooth="yes"/>
      <point x="255" y="915"/>
      <point x="268" y="915"/>
    </contour>
  </outline>
</glyph>
<glyph name="parenright" format="1">
  <advance width="855"/>
  <unicode hex="0029"/>
  <outline>
    <contour>
      <point x="141" y="-222" type="line"/>
      <point x="555" y="-192"/>
      <point x="696" y="232"/>
      <point x="696" y="741" type="curve" smooth="yes"/>
      <point x="696" y="1250"/>
      <point x="555" y="1674"/>
      <point x="141" y="1704" type="curve"/>
      <point x="128" y="1550" type="line"/>
      <point x="391" y="1514"/>
      <point x="480" y="1194"/>
      <point x="480" y="740" type="curve" smooth="yes"/>
      <point x="480" y="286"/>
      <point x="391" y="-32"/>
      <point x="128" y="-68" type="curve"/>
    </contour>
  </outline>
</glyph>
<glyph name="plus" format="1">
  <advance width="1088"/>
  <unicode hex="002B"/>
  <outline>
    <contour>
      <point x="447" y="208" type="line"/>
      <point x="640" y="208" type="line"/>
      <point x="640" y="572" type="line"/>
      <point x="954" y="572" type="line"/>
      <point x="954" y="761" type="line"/>
      <point x="640" y="761" type="line"/>
      <point x="640" y="1126" type="line"/>
      <point x="447" y="1126" type="line"/>
      <point x="447" y="761" type="line"/>
      <point x="133" y="761" type="line"/>
      <point x="133" y="572" type="line"/>
      <point x="447" y="572" type="line"/>
    </contour>
  </outline>
</glyph>
<glyph name="comma" format="1">
  <advance width="613"/>
  <unicode hex="002C"/>
  <outline>
    <contour>
      <point x="198" y="-231" type="curve" smooth="yes"/>
      <point x="348" y="-231"/>
      <point x="465" y="-36"/>
      <point x="465" y="135" type="curve" smooth="yes"/>
      <point x="465" y="234"/>
      <point x="411" y="321"/>
      <point x="316" y="321" type="curve" smooth="yes"/>
      <point x="222" y="321"/>
      <point x="162" y="252"/>
      <point x="162" y="161" type="curve" smooth="yes"/>
      <point x="162" y="71"/>
      <point x="224" y="1"/>
      <point x="310" y="0" type="curve"/>
      <point x="310" y="-88"/>
      <point x="227" y="-154"/>
      <point x="140" y="-155" type="curve"/>
      <point x="140" y="-227" type="line"/>
      <point x="152" y="-230"/>
      <point x="171" y="-231"/>
    </contour>
  </outline>
</glyph>
<glyph name="slash" format="1">
  <advance width="823"/>
  <unicode hex="002F"/>
  <outline>
    <contour>
      <point x="126" y="-23" type="line"/>
      <point x="327" y="-23" type="line"/>
      <point x="700" y="1525" type="line"/>
      <point x="492" y="1525" type="line"/>
    </contour>
  </outline>
</glyph>
<glyph name="two" format="1">
  <advance width="1319"/>
  <unicode hex="0032"/>
  <outline>
    <contour>
      <point x="192" y="0" type="line"/>
      <point x="1094" y="0" type="line"/>
      <point x="1094" y="165" type="line"/>
      <point x="417" y="165" type="line"/>
      <point x="417" y="362"/>
      <point x="474" y="396"/>
      <point x="668" y="515" type="curve" smooth="yes"/>
      <point x="945" y="682"/>
      <point x="1129" y="749"/>
      <point x="1129" y="1101" type="curve" smooth="yes"/>
      <point x="1129" y="1432"/>
      <point x="996" y="1523"/>
      <point x="654" y="1523" type="curve" smooth="yes"/>
      <point x="337" y="1523"/>
      <point x="193" y="1438"/>
      <point x="193" y="1181" type="curve" smooth="yes"/>
      <point x="193" y="1150" type="line"/>
      <point x="401" y="1119" type="line"/>
      <point x="409" y="1213"/>
      <point x="409" y="1300"/>
      <point x="447" y="1330" type="curve" smooth="yes"/>
      <point x="487" y="1360"/>
      <point x="576" y="1368"/>
      <point x="666" y="1368" type="curve" smooth="yes"/>
      <point x="770" y="1368"/>
      <point x="836" y="1352"/>
      <point x="863" y="1313" type="curve" smooth="yes"/>
      <point x="891" y="1274"/>
      <point x="904" y="1182"/>
      <point x="904" y="1098" type="curve" smooth="yes"/>
      <point x="904" y="835"/>
      <point x="793" y="823"/>
      <point x="557" y="678" type="curve" smooth="yes"/>
      <point x="340" y="548"/>
      <point x="192" y="471"/>
      <point x="192" y="139" type="curve" smooth="yes"/>
    </contour>
  </outline>
</glyph>
<glyph name="four" format="1">
  <advance width="1319"/>
  <unicode hex="0034"/>
  <outline>
    <contour>
      <point x="629" y="1503" type="line"/>
      <point x="140" y="553" type="line"/>
      <point x="140" y="371" type="line"/>
      <point x="835" y="371" type="line"/>
      <point x="835" y="0" type="line"/>
      <point x="1059" y="0" type="line"/>
      <point x="1059" y="1008" type="line"/>
      <point x="835" y="1008" type="line"/>
      <point x="835" y="531" type="line"/>
      <point x="379" y="531" type="line"/>
      <point x="537.898" y="859.436"/>
      <point x="706.001" y="1178.67"/>
      <point x="869" y="1503" type="curve"/>
    </contour>
  </outline>
</glyph>
<glyph name="at" format="1">
  <advance width="2086"/>
  <unicode hex="0040"/>
  <outline>
    <contour>
      <point x="1072" y="246" type="curve" smooth="yes"/>
      <point x="869" y="246"/>
      <point x="839" y="284"/>
      <point x="839" y="387" type="curve" smooth="yes"/>
      <point x="839" y="573"/>
      <point x="878" y="635"/>
      <point x="1020" y="636" type="curve" smooth="yes"/>
      <point x="1281" y="637" type="line"/>
      <point x="1280" y="441" type="line" smooth="yes"/>
      <point x="1279" y="341"/>
      <point x="1211" y="246"/>
    </contour>
    <contour>
      <point x="1062" y="-253" type="curve" smooth="yes"/>
      <point x="1298" y="-253"/>
      <point x="1477" y="-217"/>
      <point x="1645" y="-147" type="curve"/>
      <point x="1602" y="-22" type="line"/>
      <point x="1410" y="-95"/>
      <point x="1186" y="-118"/>
      <point x="1069" y="-118" type="curve" smooth="yes"/>
      <point x="519" y="-118"/>
      <point x="366" y="121"/>
      <point x="366" y="662" type="curve" smooth="yes"/>
      <point x="366" y="1178"/>
      <point x="533" y="1410"/>
      <point x="1079" y="1410" type="curve" smooth="yes"/>
      <point x="1623" y="1410"/>
      <point x="1724" y="1211"/>
      <point x="1724" y="688" type="curve" smooth="yes"/>
      <point x="1724" y="404"/>
      <point x="1720" y="318"/>
      <point x="1665" y="279" type="curve" smooth="yes"/>
      <point x="1633" y="258"/>
      <point x="1555" y="257"/>
      <point x="1473" y="257" type="curve"/>
      <point x="1473" y="905" type="line" smooth="yes"/>
      <point x="1473" y="1107"/>
      <point x="1355" y="1200"/>
      <point x="1101" y="1200" type="curve" smooth="yes"/>
      <point x="847" y="1200"/>
      <point x="691" y="1175"/>
      <point x="691" y="974" type="curve" smooth="yes"/>
      <point x="691" y="950"/>
      <point x="694" y="916"/>
      <point x="700" y="888" type="curve"/>
      <point x="873" y="888" type="line"/>
      <point x="871.414" y="910.203"/>
      <point x="867.592" y="940.791"/>
      <point x="867.592" y="968.534" type="curve" smooth="yes"/>
      <point x="867.592" y="993.27"/>
      <point x="870.63" y="1015.74"/>
      <point x="881" y="1028" type="curve" smooth="yes"/>
      <point x="908" y="1059"/>
      <point x="975" y="1064"/>
      <point x="1077" y="1064" type="curve" smooth="yes"/>
      <point x="1232" y="1064"/>
      <point x="1281" y="1050"/>
      <point x="1281" y="939" type="curve" smooth="yes"/>
      <point x="1281" y="719" type="line"/>
      <point x="1147" y="742"/>
      <point x="1061" y="751"/>
      <point x="971" y="751" type="curve" smooth="yes"/>
      <point x="752.068" y="750.005"/>
      <point x="649.993" y="646.017"/>
      <point x="649.993" y="434.108" type="curve" smooth="yes"/>
      <point x="649.993" y="196.779"/>
      <point x="760.796" y="128"/>
      <point x="1018" y="128" type="curve" smooth="yes"/>
      <point x="1234" y="128"/>
      <point x="1293" y="191"/>
      <point x="1331" y="290" type="curve"/>
      <point x="1351" y="206"/>
      <point x="1416" y="146"/>
      <point x="1513" y="146" type="curve" smooth="yes"/>
      <point x="1863" y="146"/>
      <point x="1899" y="308"/>
      <point x="1899" y="686" type="curve" smooth="yes"/>
      <point x="1899" y="1322"/>
      <point x="1724" y="1551"/>
      <point x="1062" y="1551" type="curve" smooth="yes"/>
      <point x="437" y="1551"/>
      <point x="191" y="1279"/>
      <point x="191" y="636" type="curve" smooth="yes"/>
      <point x="191" y="-31"/>
      <point x="460" y="-253"/>
    </contour>
  </outline>
</glyph>
<glyph name="M" format="1">
  <advance width="1800"/>
  <unicode hex="004D"/>
  <outline>
    <contour>
      <point x="900" y="0" type="move" name="bot"/>
    </contour>
    <contour>
      <point x="900" y="1503" type="move" name="top"/>
    </contour>
    <contour>
      <point x="1289" y="1503" type="line"/>
      <point x="904" y="370" type="line"/>
      <point x="900" y="370" type="line"/>
      <point x="508" y="1503" type="line"/>
      <point x="234" y="1503" type="line"/>
      <point x="137" y="0" type="line"/>
      <point x="357" y="0" type="line"/>
      <point x="424" y="1154" type="line"/>
      <point x="427" y="1154" type="line"/>
      <point x="825" y="0" type="line"/>
      <point x="978" y="0" type="line"/>
      <point x="1358" y="1154" type="line"/>
      <point x="1364" y="1154" type="line"/>
      <point x="1433" y="0" type="line"/>
      <point x="1661" y="0" type="line"/>
      <point x="1564" y="1503" type="line"/>
    </contour>
  </outline>
</glyph>
<glyph name="O" format="1">
  <advance width="1478"/>
  <unicode hex="004F"/>
  <outline>
    <contour>
      <point x="739" y="0" type="move" name="bot"/>
    </contour>
    <contour>
      <point x="840" y="0" type="move" name="ogonek"/>
    </contour>
    <contour>
      <point x="739" y="1503" type="move" name="top"/>
    </contour>
    <contour>
      <point x="738" y="-20" type="curve" smooth="yes"/>
      <point x="1214" y="-20"/>
      <point x="1330" y="113"/>
      <point x="1330" y="647" type="curve" smooth="yes"/>
      <point x="1330" y="856" type="line" smooth="yes"/>
      <point x="1330" y="1390"/>
      <point x="1210" y="1523"/>
      <point x="738" y="1523" type="curve" smooth="yes"/>
      <point x="263" y="1523"/>
      <point x="147" y="1389"/>
      <point x="147" y="856" type="curve" smooth="yes"/>
      <point x="147" y="647" type="line" smooth="yes"/>
      <point x="147" y="112"/>
      <point x="261" y="-20"/>
    </contour>
    <contour>
      <point x="739" y="148" type="curve" smooth="yes"/>
      <point x="445" y="148"/>
      <point x="407" y="190"/>
      <point x="402" y="380" type="curve" smooth="yes"/>
      <point x="399" y="460"/>
      <point x="399" y="606"/>
      <point x="399" y="750" type="curve" smooth="yes"/>
      <point x="399" y="897"/>
      <point x="399" y="1043"/>
      <point x="402" y="1123" type="curve" smooth="yes"/>
      <point x="407" y="1313"/>
      <point x="445" y="1355"/>
      <point x="739" y="1355" type="curve" smooth="yes"/>
      <point x="1033" y="1355"/>
      <point x="1070" y="1313"/>
      <point x="1076" y="1123" type="curve" smooth="yes"/>
      <point x="1078" y="1043"/>
      <point x="1078" y="897"/>
      <point x="1078" y="750" type="curve" smooth="yes"/>
      <point x="1078" y="606"/>
      <point x="1078" y="460"/>
      <point x="1076" y="380" type="curve" smooth="yes"/>
      <point x="1070" y="190"/>
      <point x="1033" y="148"/>
    </contour>
  </outline>
</glyph>
<glyph name="P" format="1">
  <advance width="1350"/>
  <unicode hex="0050"/>
  <outline>
    <contour>
      <point x="682" y="0" type="move" name="bot"/>
    </contour>
    <contour>
      <point x="682" y="1503" type="move" name="top"/>
    </contour>
    <contour>
      <point x="441" y="667" type="line"/>
      <point x="441" y="1343" type="line"/>
      <point x="798" y="1343" type="line" smooth="yes"/>
      <point x="858" y="1343"/>
      <point x="908" y="1335"/>
      <point x="935" y="1314" type="curve" smooth="yes"/>
      <point x="980" y="1279"/>
      <point x="989" y="1159"/>
      <point x="991" y="1013" type="curve" smooth="yes"/>
      <point x="991" y="1008.69"/>
      <point x="991.001" y="1004.38"/>
      <point x="991.001" y="1000.09" type="curve" smooth="yes"/>
      <point x="991.001" y="866.898"/>
      <point x="990.062" y="742.656"/>
      <point x="930" y="701" type="curve" smooth="yes"/>
      <point x="898" y="678"/>
      <point x="838" y="667"/>
      <point x="762" y="667" type="curve" smooth="yes"/>
    </contour>
    <contour>
      <point x="191" y="0" type="line"/>
      <point x="441" y="0" type="line"/>
      <point x="441" y="507" type="line"/>
      <point x="809" y="507" type="line" smooth="yes"/>
      <point x="1061" y="507"/>
      <point x="1236" y="556"/>
      <point x="1242" y="956" type="curve"/>
      <point x="1242" y="1028" type="line" smooth="yes"/>
      <point x="1242" y="1431"/>
      <point x="1105" y="1503"/>
      <point x="757" y="1503" type="curve" smooth="yes"/>
      <point x="191" y="1503" type="line"/>
    </contour>
  </outline>
</glyph>
<glyph name="Q" format="1">
  <advance width="1478"/>
  <unicode hex="0051"/>
  <outline>
    <component base="O"/>
    <contour>
      <point x="829" y="37" type="line"/>
      <point x="1093" y="-367" type="line"/>
      <point x="1265" y="-269" type="line"/>
      <point x="1050" y="75" type="line"/>
    </contour>
  </outline>
</glyph>
<glyph name="U" format="1">
  <advance width="1450"/>
  <unicode hex="0055"/>
  <outline>
    <contour>
      <point x="726" y="0" type="move" name="bot"/>
    </contour>
    <contour>
      <point x="806" y="0" type="move" name="ogonek"/>
    </contour>
    <contour>
      <point x="726" y="1503" type="move" name="top"/>
    </contour>
    <contour>
      <point x="147" y="1503" type="line"/>
      <point x="147" y="540" type="line" smooth="yes"/>
      <point x="147" y="65"/>
      <point x="318" y="-20"/>
      <point x="724" y="-20" type="curve" smooth="yes"/>
      <point x="1150" y="-20"/>
      <point x="1303" y="83"/>
      <point x="1303" y="540" type="curve" smooth="yes"/>
      <point x="1303" y="1502" type="line"/>
      <point x="1053" y="1502" type="line"/>
      <point x="1053" y="416" type="line" smooth="yes"/>
      <point x="1053" y="199"/>
      <point x="1012" y="148"/>
      <point x="725" y="148" type="curve" smooth="yes"/>
      <point x="410" y="148"/>
      <point x="398" y="189"/>
      <point x="398" y="501" type="curve" smooth="yes"/>
      <point x="398" y="1503" type="line"/>
    </contour>
  </outline>
</glyph>
<glyph name="W" format="1">
  <advance width="1932"/>
  <unicode hex="0057"/>
  <outline>
    <contour>
      <point x="963" y="0" type="move" name="bot"/>
    </contour>
    <contour>
      <point x="963" y="1503" type="move" name="top"/>
    </contour>
    <contour>
      <point x="1604" y="1503" type="line"/>
      <point x="1394" y="346" type="line"/>
      <point x="1380" y="346" type="line"/>
      <point x="1092" y="1503" type="line"/>
      <point x="857" y="1503" type="line"/>
      <point x="566" y="339" type="line"/>
      <point x="557" y="339" type="line"/>
      <point x="345" y="1503" type="line"/>
      <point x="98" y="1503" type="line"/>
      <point x="403" y="0" type="line"/>
      <point x="668" y="0" type="line"/>
      <point x="965" y="1134" type="line"/>
      <point x="980" y="1134" type="line"/>
      <point x="1256" y="0" type="line"/>
      <point x="1524" y="0" type="line"/>
      <point x="1833" y="1503" type="line"/>
    </contour>
  </outline>
</glyph>
<glyph name="X" format="1">
  <advance width="1311"/>
  <unicode hex="0058"/>
  <outline>
    <contour>
      <point x="800" y="749" type="line"/>
      <point x="1260" y="1503" type="line"/>
      <point x="1003" y="1503" type="line"/>
      <point x="668" y="962" type="line"/>
      <point x="332" y="1503" type="line"/>
      <point x="83" y="1503" type="line"/>
      <point x="526" y="786" type="line"/>
      <point x="40" y="0" type="line"/>
      <point x="300" y="0" type="line"/>
      <point x="658" y="572" type="line"/>
      <point x="1011" y="0" type="line"/>
      <point x="1264" y="0" type="line"/>
    </contour>
  </outline>
</glyph>
<glyph name="backslash" format="1">
  <advance width="831"/>
  <unicode hex="005C"/>
  <outline>
    <contour>
      <point x="126" y="1525" type="line"/>
      <point x="479" y="-23" type="line"/>
      <point x="702" y="-23" type="line"/>
      <point x="358" y="1525" type="line"/>
    </contour>
  </outline>
</glyph>
<glyph name="bracketright" format="1">
  <advance width="829"/>
  <unicode hex="005D"/>
  <outline>
    <contour>
      <point x="136" y="1660" type="line"/>
      <point x="136" y="1498" type="line"/>
      <point x="400" y="1498" type="line"/>
      <point x="400" y="-115" type="line"/>
      <point x="136" y="-115" type="line"/>
      <point x="136" y="-278" type="line"/>
      <point x="645" y="-278" type="line"/>
      <point x="645" y="1660" type="line"/>
    </contour>
  </outline>
</glyph>
<glyph name="grave" format="1">
  <advance width="752"/>
  <unicode hex="0060"/>
  <outline>
    <contour>
      <point x="427" y="1121" type="move" name="_top"/>
    </contour>
    <contour>
      <point x="628.852" y="1308.56" type="curve" smooth="yes"/>
      <point x="640.638" y="1308.56"/>
      <point x="647.75" y="1315.03"/>
      <point x="647.75" y="1326.25" type="curve" smooth="yes"/>
      <point x="647.75" y="1331.25"/>
      <point x="646" y="1336.5"/>
      <point x="642" y="1341" type="curve" smooth="yes"/>
      <point x="622" y="1359"/>
      <point x="370" y="1616"/>
      <point x="324" y="1652" type="curve" smooth="yes"/>
      <point x="298" y="1671"/>
      <point x="268" y="1687"/>
      <point x="235" y="1687" type="curve" smooth="yes"/>
      <point x="165" y="1687"/>
      <point x="124" y="1634"/>
      <point x="124" y="1577" type="curve" smooth="yes"/>
      <point x="124" y="1535"/>
      <point x="147" y="1488"/>
      <point x="200" y="1464" type="curve" smooth="yes"/>
      <point x="235" y="1447"/>
      <point x="595" y="1317"/>
      <point x="620" y="1310" type="curve" smooth="yes"/>
      <point x="623" y="1309"/>
      <point x="626" y="1308.56"/>
    </contour>
  </outline>
</glyph>
<glyph name="r" format="1">
  <advance width="794"/>
  <unicode hex="0072"/>
  <outline>
    <contour>
      <point x="387" y="0" type="move" name="bot"/>
    </contour>
    <contour>
      <point x="391" y="1121" type="move" name="top"/>
    </contour>
    <contour>
      <point x="404" y="995" type="curve"/>
      <point x="382" y="1121" type="line"/>
      <point x="166" y="1121" type="line"/>
      <point x="166" y="0" type="line"/>
      <point x="408" y="0" type="line"/>
      <point x="408" y="504" type="line" smooth="yes"/>
      <point x="408" y="565"/>
      <point x="401" y="656"/>
      <point x="401" y="727" type="curve" smooth="yes"/>
      <point x="401" y="912"/>
      <point x="529" y="943"/>
      <point x="692" y="943" type="curve"/>
      <point x="699" y="1135" type="line"/>
      <point x="566" y="1135"/>
      <point x="452" y="1107"/>
    </contour>
  </outline>
</glyph>
<glyph name="s" format="1">
  <advance width="1095"/>
  <unicode hex="0073"/>
  <outline>
    <contour>
      <point x="535" y="0" type="move" name="bot"/>
    </contour>
    <contour>
      <point x="522" y="1121" type="move" name="top"/>
    </contour>
    <contour>
      <point x="585" y="-20" type="curve" smooth="yes"/>
      <point x="879" y="-20"/>
      <point x="999" y="39"/>
      <point x="999" y="314" type="curve" smooth="yes"/>
      <point x="999" y="582"/>
      <point x="952" y="633"/>
      <point x="636" y="669" type="curve"/>
      <point x="534" y="682" type="line"/>
      <point x="353" y="702"/>
      <point x="347" y="711"/>
      <point x="347" y="834" type="curve" smooth="yes"/>
      <point x="347" y="887"/>
      <point x="349" y="939"/>
      <point x="374" y="960" type="curve" smooth="yes"/>
      <point x="399" y="982"/>
      <point x="456" y="990"/>
      <point x="549" y="990" type="curve" smooth="yes"/>
      <point x="644" y="990"/>
      <point x="704" y="988"/>
      <point x="733" y="970" type="curve" smooth="yes"/>
      <point x="763" y="952"/>
      <point x="770" y="902"/>
      <point x="776" y="840" type="curve"/>
      <point x="956" y="878" type="line"/>
      <point x="956" y="1126"/>
      <point x="805" y="1142"/>
      <point x="557" y="1142" type="curve" smooth="yes"/>
      <point x="251" y="1142"/>
      <point x="123" y="1089"/>
      <point x="123" y="836" type="curve" smooth="yes"/>
      <point x="123" y="564"/>
      <point x="210" y="536"/>
      <point x="492" y="506" type="curve"/>
      <point x="598" y="494" type="line" smooth="yes"/>
      <point x="747" y="478"/>
      <point x="775" y="467"/>
      <point x="775" y="324" type="curve" smooth="yes"/>
      <point x="775" y="269"/>
      <point x="774" y="207"/>
      <point x="749" y="177" type="curve" smooth="yes"/>
      <point x="725" y="147"/>
      <point x="668" y="131"/>
      <point x="574" y="131" type="curve" smooth="yes"/>
      <point x="459" y="131"/>
      <point x="392" y="133"/>
      <point x="362" y="156" type="curve" smooth="yes"/>
      <point x="331" y="179"/>
      <point x="328" y="245"/>
      <point x="321" y="331" type="curve"/>
      <point x="123" y="293" type="line"/>
      <point x="123" y="-8"/>
      <point x="294" y="-20"/>
    </contour>
  </outline>
</glyph>
<glyph name="w" format="1">
  <advance width="1645"/>
  <unicode hex="0077"/>
  <outline>
    <contour>
      <point x="833" y="0" type="move" name="bot"/>
    </contour>
    <contour>
      <point x="825" y="1121" type="move" name="top"/>
    </contour>
    <contour>
      <point x="355" y="0" type="line"/>
      <point x="616" y="0" type="line"/>
      <point x="827" y="850" type="line"/>
      <point x="829" y="850" type="line"/>
      <point x="1047" y="0" type="line"/>
      <point x="1291" y="0" type="line"/>
      <point x="1566" y="1121" type="line"/>
      <point x="1345" y="1121" type="line"/>
      <point x="1157" y="235" type="line"/>
      <point x="1154" y="235" type="line"/>
      <point x="936" y="1121" type="line"/>
      <point x="714" y="1121" type="line"/>
      <point x="501" y="235" type="line"/>
      <point x="498" y="235" type="line"/>
      <point x="297" y="1121" type="line"/>
      <point x="78" y="1121" type="line"/>
    </contour>
  </outline>
</glyph>
<glyph name="braceleft" format="1">
  <advance width="904"/>
  <unicode hex="007B"/>
  <outline>
    <contour>
      <point x="833" y="-225" type="curve"/>
      <point x="833" y="-83" type="line"/>
      <point x="584.137" y="-83"/>
      <point x="567.934" y="-36.8373"/>
      <point x="567.934" y="252.428" type="curve" smooth="yes"/>
      <point x="567.934" y="264.211"/>
      <point x="567.961" y="276.397"/>
      <point x="568" y="289" type="curve" smooth="yes"/>
      <point x="568" y="550"/>
      <point x="535" y="691"/>
      <point x="370" y="723" type="curve"/>
      <point x="535" y="756"/>
      <point x="568" y="897"/>
      <point x="568" y="1158" type="curve" smooth="yes"/>
      <point x="567.961" y="1170.56"/>
      <point x="567.934" y="1182.71"/>
      <point x="567.934" y="1194.46" type="curve" smooth="yes"/>
      <point x="567.934" y="1482.84"/>
      <point x="584.137" y="1529"/>
      <point x="833" y="1529" type="curve"/>
      <point x="833" y="1672" type="line"/>
      <point x="440" y="1672"/>
      <point x="348" y="1576"/>
      <point x="344" y="1151" type="curve" smooth="yes"/>
      <point x="341" y="854"/>
      <point x="282" y="818"/>
      <point x="94" y="818" type="curve"/>
      <point x="94" y="629" type="line"/>
      <point x="282" y="629"/>
      <point x="341" y="592"/>
      <point x="344" y="296" type="curve" smooth="yes"/>
      <point x="348" y="-130"/>
      <point x="440" y="-225"/>
    </contour>
  </outline>
</glyph>
<glyph name="bar" format="1">
  <advance width="580"/>
  <unicode hex="007C"/>
  <outline>
    <contour>
      <point x="178" y="1657" type="line"/>
      <point x="178" y="-167" type="line"/>
      <point x="400" y="-167" type="line"/>
      <point x="400" y="1657" type="line"/>
    </contour>
  </outline>
</glyph>
<glyph name="braceright" format="1">
  <advance width="904"/>
  <unicode hex="007D"/>
  <outline>
    <contour>
      <point x="94" y="-225" type="line"/>
      <point x="487" y="-225"/>
      <point x="579" y="-130"/>
      <point x="583" y="296" type="curve" smooth="yes"/>
      <point x="585" y="592"/>
      <point x="645" y="629"/>
      <point x="833" y="629" type="curve"/>
      <point x="833" y="818" type="line"/>
      <point x="645" y="818"/>
      <point x="585" y="854"/>
      <point x="583" y="1151" type="curve" smooth="yes"/>
      <point x="579" y="1576"/>
      <point x="487" y="1672"/>
      <point x="94" y="1672" type="curve"/>
      <point x="94" y="1529" type="line"/>
      <point x="353" y="1529"/>
      <point x="359" y="1479"/>
      <point x="359" y="1158" type="curve" smooth="yes"/>
      <point x="359" y="897"/>
      <point x="392" y="756"/>
      <point x="556" y="723" type="curve"/>
      <point x="392" y="691"/>
      <point x="359" y="550"/>
      <point x="359" y="289" type="curve" smooth="yes"/>
      <point x="359" y="-33"/>
      <point x="353" y="-83"/>
      <point x="94" y="-83" type="curve"/>
    </contour>
  </outline>
</glyph>
<glyph name="dieresis" format="1">
  <advance width="1040"/>
  <unicode hex="00A8"/>
  <outline>
    <contour>
      <point x="526" y="1121" type="move" name="_top"/>
    </contour>
    <contour>
      <point x="162" y="1399" type="curve" smooth="yes"/>
      <point x="162" y="1315"/>
      <point x="216" y="1275"/>
      <point x="289" y="1275" type="curve" smooth="yes"/>
      <point x="364" y="1275"/>
      <point x="415" y="1315"/>
      <point x="415" y="1399" type="curve" smooth="yes"/>
      <point x="415" y="1482"/>
      <point x="364" y="1522"/>
      <point x="289" y="1522" type="curve" smooth="yes"/>
      <point x="217" y="1522"/>
      <point x="162" y="1481"/>
    </contour>
    <contour>
      <point x="640" y="1399" type="curve" smooth="yes"/>
      <point x="640" y="1315"/>
      <point x="694" y="1275"/>
      <point x="767" y="1275" type="curve" smooth="yes"/>
      <point x="842" y="1275"/>
      <point x="893" y="1315"/>
      <point x="893" y="1399" type="curve" smooth="yes"/>
      <point x="893" y="1482"/>
      <point x="842" y="1522"/>
      <point x="767" y="1522" type="curve" smooth="yes"/>
      <point x="695" y="1522"/>
      <point x="640" y="1481"/>
    </contour>
  </outline>
</glyph>
<glyph name="copyright" format="1">
  <advance width="1866"/>
  <unicode hex="00A9"/>
  <outline>
    <contour>
      <point x="944" y="-97" type="curve" smooth="yes"/>
      <point x="1380" y="-97"/>
      <point x="1770" y="56"/>
      <point x="1770" y="599" type="curve" smooth="yes"/>
      <point x="1770" y="926" type="line" smooth="yes"/>
      <point x="1770" y="1487"/>
      <point x="1387" y="1643"/>
      <point x="935" y="1643" type="curve" smooth="yes"/>
      <point x="496" y="1643"/>
      <point x="99" y="1495"/>
      <point x="99" y="928" type="curve" smooth="yes"/>
      <point x="99" y="599" type="line" smooth="yes"/>
      <point x="99" y="62"/>
      <point x="485" y="-97"/>
    </contour>
    <contour>
      <point x="925" y="15" type="curve" smooth="yes"/>
      <point x="554" y="15"/>
      <point x="239" y="140"/>
      <point x="239" y="598" type="curve" smooth="yes"/>
      <point x="239" y="925" type="line" smooth="yes"/>
      <point x="239" y="1416"/>
      <point x="555" y="1528"/>
      <point x="933" y="1528" type="curve" smooth="yes"/>
      <point x="1303" y="1528"/>
      <point x="1630" y="1418"/>
      <point x="1630" y="931" type="curve" smooth="yes"/>
      <point x="1630" y="592" type="line" smooth="yes"/>
      <point x="1630" y="128"/>
      <point x="1316" y="15"/>
    </contour>
    <contour>
      <point x="916" y="232" type="curve" smooth="yes"/>
      <point x="1254" y="232"/>
      <point x="1318" y="278"/>
      <point x="1318" y="552" type="curve" smooth="yes"/>
      <point x="1318" y="657" type="line"/>
      <point x="1174" y="657" type="line"/>
      <point x="1173" y="517" type="line" smooth="yes"/>
      <point x="1171" y="363"/>
      <point x="1143" y="352"/>
      <point x="942" y="352" type="curve" smooth="yes"/>
      <point x="734" y="352"/>
      <point x="694" y="377"/>
      <point x="694" y="505" type="curve" smooth="yes"/>
      <point x="693" y="1074" type="line" smooth="yes"/>
      <point x="693" y="1200"/>
      <point x="718" y="1213"/>
      <point x="942" y="1213" type="curve" smooth="yes"/>
      <point x="1148" y="1213"/>
      <point x="1171" y="1197"/>
      <point x="1173" y="1036" type="curve" smooth="yes"/>
      <point x="1174" y="909" type="line"/>
      <point x="1318" y="909" type="line"/>
      <point x="1316" y="1014" type="line" smooth="yes"/>
      <point x="1311" y="1301"/>
      <point x="1213" y="1333"/>
      <point x="916" y="1333" type="curve" smooth="yes"/>
      <point x="591" y="1333"/>
      <point x="535" y="1264"/>
      <point x="535" y="929" type="curve" smooth="yes"/>
      <point x="535" y="680" type="line" smooth="yes"/>
      <point x="535" y="294"/>
      <point x="608" y="232"/>
    </contour>
  </outline>
</glyph>
<glyph name="ordfeminine" format="1">
  <advance width="1060"/>
  <unicode hex="00AA"/>
  <outline>
    <contour>
      <point x="464" y="670" type="curve" smooth="yes"/>
      <point x="336" y="670"/>
      <point x="336" y="750"/>
      <point x="336" y="887" type="curve" smooth="yes"/>
      <point x="336" y="956"/>
      <point x="409" y="979"/>
      <point x="697" y="982" type="curve"/>
      <point x="697" y="843" type="line"/>
      <point x="693" y="745"/>
      <point x="654" y="670"/>
    </contour>
    <contour>
      <point x="426" y="545" type="curve" smooth="yes"/>
      <point x="576" y="545"/>
      <point x="669" y="570"/>
      <point x="707" y="688" type="curve"/>
      <point x="735" y="559" type="line"/>
      <point x="907" y="559" type="line"/>
      <point x="907" y="1197" type="line" smooth="yes"/>
      <point x="907" y="1460"/>
      <point x="805" y="1523"/>
      <point x="542" y="1523" type="curve" smooth="yes"/>
      <point x="335" y="1523"/>
      <point x="191" y="1500"/>
      <point x="191" y="1294" type="curve" smooth="yes"/>
      <point x="191" y="1286"/>
      <point x="191" y="1265"/>
      <point x="192" y="1256" type="curve"/>
      <point x="364" y="1255" type="line"/>
      <point x="363" y="1267"/>
      <point x="363" y="1302"/>
      <point x="363" y="1311" type="curve" smooth="yes"/>
      <point x="363" y="1373"/>
      <point x="391" y="1398"/>
      <point x="534" y="1398" type="curve" smooth="yes"/>
      <point x="683" y="1398"/>
      <point x="697" y="1377"/>
      <point x="697" y="1301" type="curve" smooth="yes"/>
      <point x="697" y="1084" type="line"/>
      <point x="678" y="1084"/>
      <point x="627" y="1085"/>
      <point x="606" y="1085" type="curve" smooth="yes"/>
      <point x="325" y="1085"/>
      <point x="138" y="1035"/>
      <point x="138" y="859" type="curve" smooth="yes"/>
      <point x="138" y="634"/>
      <point x="201" y="545"/>
    </contour>
  </outline>
</glyph>
<glyph name="guillemotleft" format="1">
  <advance width="1704"/>
  <unicode hex="00AB"/>
  <outline>
    <contour>
      <point x="1302" y="245" type="curve" smooth="yes"/>
      <point x="1341" y="245"/>
      <point x="1370" y="278"/>
      <point x="1370" y="315" type="curve" smooth="yes"/>
      <point x="1370" y="333"/>
      <point x="1362" y="354"/>
      <point x="1345" y="371" type="curve" smooth="yes"/>
      <point x="941" y="781" type="line"/>
      <point x="1345" y="1190" type="line"/>
      <point x="1363" y="1212"/>
      <point x="1370" y="1232"/>
      <point x="1370" y="1246" type="curve" smooth="yes"/>
      <point x="1370" y="1285.16"/>
      <point x="1345.65" y="1316.5"/>
      <point x="1310.75" y="1316.5" type="curve" smooth="yes"/>
      <point x="1308.22" y="1316.5"/>
      <point x="1305.63" y="1316.34"/>
      <point x="1303" y="1316" type="curve"/>
      <point x="1299.82" y="1316.94"/>
      <point x="1296.63" y="1317.38"/>
      <point x="1293.43" y="1317.38" type="curve" smooth="yes"/>
      <point x="1279.52" y="1317.38"/>
      <point x="1265.25" y="1309"/>
      <point x="1249" y="1296" type="curve" smooth="yes"/>
      <point x="744" y="906" type="line" smooth="yes"/>
      <point x="696" y="870"/>
      <point x="671" y="828"/>
      <point x="671" y="780" type="curve" smooth="yes"/>
      <point x="671" y="737"/>
      <point x="694" y="693"/>
      <point x="744" y="655" type="curve" smooth="yes"/>
      <point x="1249" y="265" type="line" smooth="yes"/>
      <point x="1268" y="251"/>
      <point x="1286" y="245"/>
    </contour>
    <contour>
      <point x="721" y="245" type="curve" smooth="yes"/>
      <point x="760" y="245"/>
      <point x="789" y="278"/>
      <point x="789" y="315" type="curve" smooth="yes"/>
      <point x="789" y="333"/>
      <point x="781" y="354"/>
      <point x="764" y="371" type="curve" smooth="yes"/>
      <point x="360" y="781" type="line"/>
      <point x="764" y="1190" type="line"/>
      <point x="781" y="1212"/>
      <point x="789" y="1232"/>
      <point x="789" y="1246" type="curve" smooth="yes"/>
      <point x="789" y="1285.16"/>
      <point x="764.654" y="1316.5"/>
      <point x="729.745" y="1316.5" type="curve" smooth="yes"/>
      <point x="727.217" y="1316.5"/>
      <point x="724.634" y="1316.34"/>
      <point x="722" y="1316" type="curve"/>
      <point x="718.815" y="1316.94"/>
      <point x="715.63" y="1317.38"/>
      <point x="712.426" y="1317.38" type="curve" smooth="yes"/>
      <point x="698.525" y="1317.38"/>
      <point x="684.253" y="1309"/>
      <point x="668" y="1296" type="curve" smooth="yes"/>
      <point x="163" y="906" type="line" smooth="yes"/>
      <point x="115" y="870"/>
      <point x="90" y="828"/>
      <point x="90" y="780" type="curve" smooth="yes"/>
      <point x="90" y="737"/>
      <point x="113" y="693"/>
      <point x="163" y="655" type="curve" smooth="yes"/>
      <point x="668" y="265" type="line" smooth="yes"/>
      <point x="686" y="251"/>
      <point x="705" y="245"/>
    </contour>
  </outline>
</glyph>
<glyph name="logicalnot" format="1">
  <advance width="1233"/>
  <unicode hex="00AC"/>
  <outline>
    <contour>
      <point x="921" y="267" type="line"/>
      <point x="1080" y="267" type="line"/>
      <point x="1080" y="834" type="line"/>
      <point x="135" y="834" type="line"/>
      <point x="135" y="664" type="line"/>
      <point x="921" y="664" type="line"/>
    </contour>
  </outline>
</glyph>
<glyph name="acute" format="1">
  <advance width="744"/>
  <unicode hex="00B4"/>
  <outline>
    <contour>
      <point x="350" y="1121" type="move" name="_top"/>
    </contour>
    <contour>
      <point x="125.469" y="1326.46" type="curve" smooth="yes"/>
      <point x="125.469" y="1315.45"/>
      <point x="132.914" y="1308.37"/>
      <point x="144.569" y="1308.37" type="curve" smooth="yes"/>
      <point x="147.286" y="1308.37"/>
      <point x="150.143" y="1308.86"/>
      <point x="153" y="1310" type="curve" smooth="yes"/>
      <point x="178" y="1317"/>
      <point x="538" y="1447"/>
      <point x="573" y="1464" type="curve" smooth="yes"/>
      <point x="626" y="1488"/>
      <point x="649" y="1535"/>
      <point x="649" y="1577" type="curve" smooth="yes"/>
      <point x="649" y="1634"/>
      <point x="608" y="1687"/>
      <point x="538" y="1687" type="curve" smooth="yes"/>
      <point x="505" y="1687"/>
      <point x="475" y="1671"/>
      <point x="449" y="1652" type="curve" smooth="yes"/>
      <point x="403" y="1616"/>
      <point x="151" y="1359"/>
      <point x="131" y="1341" type="curve" smooth="yes"/>
      <point x="127.206" y="1336.66"/>
      <point x="125.469" y="1331.45"/>
    </contour>
  </outline>
</glyph>
<glyph name="onesuperior" format="1">
  <advance width="818"/>
  <unicode hex="00B9"/>
  <outline>
    <contour>
      <point x="349" y="408" type="line"/>
      <point x="559" y="408" type="line"/>
      <point x="559" y="1503" type="line"/>
      <point x="423" y="1503" type="line"/>
      <point x="366" y="1468"/>
      <point x="295" y="1448"/>
      <point x="205" y="1448" type="curve"/>
      <point x="205" y="1321" type="line"/>
      <point x="349" y="1321" type="line"/>
    </contour>
  </outline>
</glyph>
<glyph name="onehalf" format="1">
  <advance width="2425"/>
  <unicode hex="00BD"/>
  <outline>
    <contour>
      <point x="595" y="0" type="line"/>
      <point x="756" y="0" type="line"/>
      <point x="1417" y="1534" type="line"/>
      <point x="1158" y="1534" type="line"/>
    </contour>
    <contour>
      <point x="267" y="463" type="line"/>
      <point x="477" y="463" type="line"/>
      <point x="477" y="1503" type="line"/>
      <point x="341" y="1503" type="line"/>
      <point x="284" y="1468"/>
      <point x="213" y="1448"/>
      <point x="123" y="1448" type="curve"/>
      <point x="123" y="1321" type="line"/>
      <point x="267" y="1321" type="line"/>
    </contour>
    <contour>
      <point x="1898.14" y="916.014" type="curve" smooth="yes"/>
      <point x="2065.24" y="916.014"/>
      <point x="2098" y="880.218"/>
      <point x="2098" y="811" type="curve" smooth="yes"/>
      <point x="2098" y="729" type="line" smooth="yes"/>
      <point x="2098" y="640"/>
      <point x="2033" y="618"/>
      <point x="1866" y="569" type="curve" smooth="yes"/>
      <point x="1593" y="487"/>
      <point x="1496" y="396"/>
      <point x="1496" y="134" type="curve" smooth="yes"/>
      <point x="1496" y="0" type="line"/>
      <point x="2282" y="0" type="line"/>
      <point x="2282" y="149" type="line"/>
      <point x="1695" y="149" type="line"/>
      <point x="1695" y="265"/>
      <point x="1710" y="339"/>
      <point x="1912" y="405" type="curve" smooth="yes"/>
      <point x="2083" y="462"/>
      <point x="2305" y="500"/>
      <point x="2305" y="742" type="curve" smooth="yes"/>
      <point x="2305" y="1008"/>
      <point x="2160" y="1075"/>
      <point x="1898" y="1075" type="curve" smooth="yes"/>
      <point x="1655" y="1075"/>
      <point x="1489" y="1014"/>
      <point x="1490" y="744" type="curve"/>
      <point x="1490" y="702" type="line"/>
      <point x="1704" y="720" type="line"/>
      <point x="1704" y="794" type="line" smooth="yes"/>
      <point x="1704" y="862.371"/>
      <point x="1723.64" y="916.014"/>
    </contour>
  </outline>
</glyph>
<glyph name="Oslash" format="1">
  <advance width="1735"/>
  <unicode hex="00D8"/>
  <outline>
    <contour>
      <point x="852" y="1595" type="move" name="top"/>
    </contour>
    <contour>
      <point x="1165" y="1325" type="line"/>
      <point x="1362" y="1632" type="line"/>
      <point x="1239" y="1704" type="line"/>
      <point x="1037" y="1389" type="line"/>
    </contour>
    <contour>
      <point x="267" y="-170" type="line"/>
      <point x="438" y="102" type="line"/>
      <point x="322" y="181" type="line"/>
      <point x="148" y="-96" type="line"/>
    </contour>
    <component base="O"/>
  </outline>
</glyph>
<glyph name="Thorn" format="1">
  <advance width="1349"/>
  <unicode hex="00DE"/>
  <outline>
    <contour>
      <point x="179" y="0" type="line"/>
      <point x="427" y="0" type="line"/>
      <point x="427" y="367" type="line"/>
      <point x="636" y="367" type="line" smooth="yes"/>
      <point x="880" y="367"/>
      <point x="1227" y="343"/>
      <point x="1227" y="809" type="curve" smooth="yes"/>
      <point x="1227" y="881" type="line" smooth="yes"/>
      <point x="1220" y="1235"/>
      <point x="1069" y="1299"/>
      <point x="659" y="1299" type="curve" smooth="yes"/>
      <point x="427" y="1299" type="line"/>
      <point x="427" y="1503" type="line"/>
      <point x="179" y="1503" type="line"/>
    </contour>
    <contour>
      <point x="427" y="543" type="line"/>
      <point x="427" y="1127" type="line"/>
      <point x="651" y="1127" type="line" smooth="yes"/>
      <point x="943" y="1127"/>
      <point x="980" y="1070"/>
      <point x="980" y="832" type="curve" smooth="yes"/>
      <point x="980" y="654"/>
      <point x="977" y="543"/>
      <point x="731" y="543" type="curve" smooth="yes"/>
    </contour>
  </outline>
</glyph>
<glyph name="divide" format="1">
  <advance width="781"/>
  <unicode hex="00F7"/>
  <outline>
    <contour>
      <point x="392" y="925" type="curve" smooth="yes"/>
      <point x="480" y="925"/>
      <point x="532" y="991"/>
      <point x="532" y="1079" type="curve" smooth="yes"/>
      <point x="532" y="1157"/>
      <point x="476" y="1233"/>
      <point x="406" y="1233" type="curve" smooth="yes"/>
      <point x="305" y="1233"/>
      <point x="252" y="1175"/>
      <point x="252" y="1079" type="curve" smooth="yes"/>
      <point x="252" y="984"/>
      <point x="310" y="925"/>
    </contour>
    <contour>
      <point x="48" y="614" type="line"/>
      <point x="735" y="614" type="line"/>
      <point x="735" y="753" type="line"/>
      <point x="48" y="753" type="line"/>
    </contour>
    <contour>
      <point x="392" y="134" type="curve" smooth="yes"/>
      <point x="478" y="134"/>
      <point x="532" y="203"/>
      <point x="532" y="288" type="curve" smooth="yes"/>
      <point x="532" y="366"/>
      <point x="476" y="442"/>
      <point x="406" y="442" type="curve" smooth="yes"/>
      <point x="305" y="442"/>
      <point x="252" y="383"/>
      <point x="252" y="288" type="curve" smooth="yes"/>
      <point x="252" y="193"/>
      <point x="311" y="134"/>
    </contour>
  </outline>
</glyph>
<glyph name="lslash" format="1">
  <advance width="669"/>
  <unicode hex="0142"/>
  <outline>
    <component base="l" xOffset="26"/>
    <contour>
      <point x="56" y="788" type="line"/>
      <point x="597" y="996" type="line"/>
      <point x="597" y="1167" type="line"/>
      <point x="56" y="960" type="line"/>
    </contour>
  </outline>
</glyph>
<glyph name="OE" format="1">
  <advance width="2079"/>
  <unicode hex="0152"/>
  <outline>
    <contour>
      <point x="1023" y="1503" type="move" name="top"/>
    </contour>
    <contour>
      <point x="734" y="163" type="line" smooth="yes"/>
      <point x="519" y="163"/>
      <point x="433" y="190"/>
      <point x="410" y="350" type="curve" smooth="yes"/>
      <point x="399.868" y="420.924"/>
      <point x="394.548" y="595.307"/>
      <point x="394.548" y="789.097" type="curve" smooth="yes"/>
      <point x="394.548" y="901.331"/>
      <point x="396.332" y="1020.08"/>
      <point x="400" y="1129" type="curve" smooth="yes"/>
      <point x="406" y="1302"/>
      <point x="440" y="1340"/>
      <point x="734" y="1340" type="curve" smooth="yes"/>
      <point x="1070" y="1340" type="line"/>
      <point x="1070" y="163" type="line"/>
    </contour>
    <contour>
      <point x="732" y="0" type="curve" smooth="yes"/>
      <point x="1929" y="0" type="line"/>
      <point x="1947" y="164" type="line"/>
      <point x="1324" y="164" type="line"/>
      <point x="1324" y="697" type="line"/>
      <point x="1853" y="697" type="line"/>
      <point x="1853" y="869" type="line"/>
      <point x="1324" y="869" type="line"/>
      <point x="1324" y="1338" type="line"/>
      <point x="1939" y="1338" type="line"/>
      <point x="1922" y="1503" type="line"/>
      <point x="732" y="1503" type="line" smooth="yes"/>
      <point x="248" y="1503"/>
      <point x="148" y="1373"/>
      <point x="148" y="862" type="curve" smooth="yes"/>
      <point x="148" y="687" type="line"/>
      <point x="149" y="131"/>
      <point x="206" y="0"/>
    </contour>
  </outline>
</glyph>
<glyph name="florin" format="1">
  <advance width="884"/>
  <unicode hex="0192"/>
  <outline>
    <contour>
      <point x="303" y="-319" type="curve" smooth="yes"/>
      <point x="489" y="-315"/>
      <point x="516" y="-222"/>
      <point x="516" y="-56" type="curve" smooth="yes"/>
      <point x="516" y="757" type="line"/>
      <point x="714" y="757" type="line"/>
      <point x="714" y="887" type="line"/>
      <point x="516" y="887" type="line"/>
      <point x="515" y="1256" type="line" smooth="yes"/>
      <point x="515" y="1372"/>
      <point x="515" y="1392"/>
      <point x="646" y="1392" type="curve" smooth="yes"/>
      <point x="672" y="1392"/>
      <point x="698" y="1391"/>
      <point x="724" y="1389" type="curve"/>
      <point x="724" y="1543" type="line"/>
      <point x="661" y="1555"/>
      <point x="601" y="1561"/>
      <point x="548" y="1561" type="curve" smooth="yes"/>
      <point x="386" y="1561"/>
      <point x="317" y="1484"/>
      <point x="318" y="1259" type="curve" smooth="yes"/>
      <point x="319" y="887" type="line"/>
      <point x="157" y="887" type="line"/>
      <point x="157" y="757" type="line"/>
      <point x="319" y="757" type="line"/>
      <point x="319" y="-167" type="line"/>
      <point x="151" y="-167" type="line"/>
      <point x="151" y="-299" type="line"/>
      <point x="241" y="-315"/>
      <point x="275" y="-319"/>
    </contour>
  </outline>
</glyph>
<glyph name="apostrophemod" format="1">
  <advance width="649"/>
  <unicode hex="02BC"/>
  <outline>
    <contour>
      <point x="105" y="1378" type="curve" smooth="yes"/>
      <point x="260" y="1378"/>
      <point x="371" y="1573"/>
      <point x="371" y="1744" type="curve" smooth="yes"/>
      <point x="371" y="1843"/>
      <point x="317" y="1930"/>
      <point x="222" y="1930" type="curve" smooth="yes"/>
      <point x="128" y="1930"/>
      <point x="68" y="1861"/>
      <point x="68" y="1770" type="curve" smooth="yes"/>
      <point x="68" y="1680"/>
      <point x="131" y="1610"/>
      <point x="217" y="1609" type="curve"/>
      <point x="216" y="1522"/>
      <point x="133" y="1455"/>
      <point x="46" y="1455" type="curve"/>
      <point x="46" y="1382" type="line"/>
      <point x="58" y="1379"/>
      <point x="77" y="1378"/>
    </contour>
  </outline>
</glyph>
<glyph name="uni02C9" format="1">
  <advance width="753"/>
  <unicode hex="02C9"/>
  <outline>
    <contour>
      <point x="392" y="1121" type="move" name="_top"/>
    </contour>
    <contour>
      <point x="79" y="1483" type="line"/>
      <point x="79" y="1343" type="line"/>
      <point x="704" y="1343" type="line"/>
      <point x="704" y="1483" type="line"/>
    </contour>
  </outline>
</glyph>
<glyph name="dotaccent" format="1">
  <advance width="529"/>
  <unicode hex="02D9"/>
  <outline>
    <contour>
      <point x="275" y="1121" type="move" name="_top"/>
    </contour>
    <contour>
      <point x="275" y="1395" type="curve" smooth="yes"/>
      <point x="358" y="1395"/>
      <point x="428" y="1435"/>
      <point x="428" y="1540" type="curve" smooth="yes"/>
      <point x="428" y="1641"/>
      <point x="359" y="1683"/>
      <point x="275" y="1683" type="curve" smooth="yes"/>
      <point x="193" y="1683"/>
      <point x="123" y="1644"/>
      <point x="123" y="1540" type="curve" smooth="yes"/>
      <point x="123" y="1438"/>
      <point x="192" y="1395"/>
    </contour>
  </outline>
</glyph>
<glyph name="ring" format="1">
  <advance width="798"/>
  <unicode hex="02DA"/>
  <outline>
    <contour>
      <point x="412" y="1121" type="move" name="_top"/>
    </contour>
    <contour>
      <point x="530" y="1519" type="curve" smooth="yes"/>
      <point x="530" y="1428"/>
      <point x="489" y="1385"/>
      <point x="411" y="1385" type="curve" smooth="yes"/>
      <point x="330" y="1385"/>
      <point x="292" y="1432"/>
      <point x="292" y="1520" type="curve" smooth="yes"/>
      <point x="292" y="1614"/>
      <point x="326" y="1660"/>
      <point x="411" y="1660" type="curve" smooth="yes"/>
      <point x="491" y="1660"/>
      <point x="530" y="1617"/>
    </contour>
    <contour>
      <point x="147" y="1520" type="curve" smooth="yes"/>
      <point x="147" y="1359"/>
      <point x="247" y="1262"/>
      <point x="411" y="1262" type="curve" smooth="yes"/>
      <point x="574" y="1262"/>
      <point x="678" y="1359"/>
      <point x="678" y="1520" type="curve" smooth="yes"/>
      <point x="678" y="1681"/>
      <point x="575" y="1785"/>
      <point x="411" y="1785" type="curve" smooth="yes"/>
      <point x="248" y="1785"/>
      <point x="147" y="1681"/>
    </contour>
  </outline>
</glyph>
<glyph name="hungarumlaut" format="1">
  <advance width="1204"/>
  <unicode hex="02DD"/>
  <outline>
    <contour>
      <point x="427" y="1121" type="move" name="_top"/>
    </contour>
    <contour>
      <point x="621" y="1333" type="curve" smooth="yes"/>
      <point x="647" y="1340"/>
      <point x="1006" y="1470"/>
      <point x="1040" y="1487" type="curve" smooth="yes"/>
      <point x="1093" y="1511"/>
      <point x="1117" y="1559"/>
      <point x="1117" y="1601" type="curve" smooth="yes"/>
      <point x="1117" y="1657"/>
      <point x="1076" y="1710"/>
      <point x="1005" y="1710" type="curve" smooth="yes"/>
      <point x="972" y="1710"/>
      <point x="943" y="1695"/>
      <point x="916" y="1675" type="curve" smooth="yes"/>
      <point x="871" y="1640"/>
      <point x="618" y="1382"/>
      <point x="599" y="1364" type="curve" smooth="yes"/>
      <point x="594" y="1360"/>
      <point x="595" y="1340"/>
      <point x="597" y="1338" type="curve" smooth="yes"/>
      <point x="598.677" y="1336.32"/>
      <point x="611.604" y="1332.54"/>
      <point x="618.093" y="1332.54" type="curve" smooth="yes"/>
      <point x="619.343" y="1332.54"/>
      <point x="620.354" y="1332.68"/>
    </contour>
    <contour>
      <point x="125.361" y="1349.39" type="curve" smooth="yes"/>
      <point x="125.361" y="1334.79"/>
      <point x="132.975" y="1332.54"/>
      <point x="148.093" y="1332.54" type="curve" smooth="yes"/>
      <point x="149.343" y="1332.54"/>
      <point x="150.354" y="1332.68"/>
      <point x="151" y="1333" type="curve" smooth="yes"/>
      <point x="176" y="1340"/>
      <point x="536" y="1470"/>
      <point x="570" y="1487" type="curve" smooth="yes"/>
      <point x="623" y="1511"/>
      <point x="646" y="1559"/>
      <point x="646" y="1601" type="curve" smooth="yes"/>
      <point x="646" y="1657"/>
      <point x="605" y="1710"/>
      <point x="535" y="1710" type="curve" smooth="yes"/>
      <point x="502" y="1710"/>
      <point x="473" y="1695"/>
      <point x="446" y="1675" type="curve" smooth="yes"/>
      <point x="400" y="1640"/>
      <point x="148" y="1382"/>
      <point x="129" y="1364" type="curve" smooth="yes"/>
      <point x="126.317" y="1361.85"/>
      <point x="125.361" y="1355.39"/>
    </contour>
  </outline>
</glyph>
<glyph name="breveinvertedcomb" format="1">
  <advance width="906"/>
  <unicode hex="0311"/>
  <outline>
    <contour>
      <point x="494" y="1121" type="move" name="_top"/>
    </contour>
    <contour>
      <point x="171" y="1297" type="curve"/>
      <point x="331" y="1297" type="line"/>
      <point x="331" y="1417"/>
      <point x="378" y="1472"/>
      <point x="478" y="1472" type="curve" smooth="yes"/>
      <point x="579" y="1472"/>
      <point x="626" y="1417"/>
      <point x="626" y="1297" type="curve"/>
      <point x="786" y="1297" type="line"/>
      <point x="786" y="1515"/>
      <point x="689" y="1614"/>
      <point x="478" y="1614" type="curve" smooth="yes"/>
      <point x="268" y="1614"/>
      <point x="171" y="1515"/>
    </contour>
  </outline>
</glyph>
<glyph name="commaturnedabovecomb" format="1">
  <advance width="649"/>
  <unicode hex="0312"/>
  <outline>
    <contour>
      <point x="349" y="1121" type="move" name="_top"/>
    </contour>
    <contour>
      <point x="349" y="1270" type="curve" smooth="yes"/>
      <point x="446" y="1270"/>
      <point x="510" y="1365"/>
      <point x="510" y="1431" type="curve" smooth="yes"/>
      <point x="510" y="1542"/>
      <point x="458" y="1600"/>
      <point x="363" y="1606" type="curve"/>
      <point x="364" y="1696"/>
      <point x="417" y="1763"/>
      <point x="495" y="1765" type="curve"/>
      <point x="495" y="1831" type="line"/>
      <point x="311" y="1831"/>
      <point x="172" y="1666"/>
      <point x="172" y="1488" type="curve" smooth="yes"/>
      <point x="172" y="1358"/>
      <point x="239" y="1270"/>
    </contour>
  </outline>
</glyph>
<glyph name="Omega" format="1">
  <advance width="1777"/>
  <unicode hex="03A9"/>
  <outline>
    <contour>
      <point x="103" y="0" type="line"/>
      <point x="803" y="0" type="line"/>
      <point x="805" y="146" type="line"/>
      <point x="521" y="267"/>
      <point x="373" y="520"/>
      <point x="373" y="789" type="curve" smooth="yes"/>
      <point x="373" y="1139"/>
      <point x="626" y="1306"/>
      <point x="888" y="1306" type="curve" smooth="yes"/>
      <point x="1152" y="1306"/>
      <point x="1404" y="1139"/>
      <point x="1404" y="789" type="curve" smooth="yes"/>
      <point x="1404" y="520"/>
      <point x="1257" y="267"/>
      <point x="972" y="146" type="curve"/>
      <point x="973" y="0" type="line"/>
      <point x="1673" y="0" type="line"/>
      <point x="1673" y="155" type="line"/>
      <point x="1253" y="155" type="line"/>
      <point x="1518" y="306"/>
      <point x="1647" y="545"/>
      <point x="1647" y="790" type="curve" smooth="yes"/>
      <point x="1647" y="1271"/>
      <point x="1276" y="1506"/>
      <point x="888" y="1506" type="curve" smooth="yes"/>
      <point x="501" y="1506"/>
      <point x="130" y="1271"/>
      <point x="130" y="790" type="curve" smooth="yes"/>
      <point x="130" y="545"/>
      <point x="258" y="306"/>
      <point x="523" y="155" type="curve"/>
      <point x="103" y="155" type="line"/>
    </contour>
  </outline>
</glyph>
<glyph name="mu" format="1">
  <advance width="1233"/>
  <unicode hex="03BC"/>
  <outline>
    <contour>
      <point x="831" y="1121" type="line"/>
      <point x="831" y="365" type="line" smooth="yes"/>
      <point x="831" y="347.43"/>
      <point x="831.352" y="330.38"/>
      <point x="831.352" y="314.033" type="curve" smooth="yes"/>
      <point x="831.352" y="210.361"/>
      <point x="817.176" y="135"/>
      <point x="609" y="135" type="curve" smooth="yes"/>
      <point x="440" y="135"/>
      <point x="399" y="161"/>
      <point x="394" y="281" type="curve"/>
      <point x="394" y="1121" type="line"/>
      <point x="152" y="1121" type="line"/>
      <point x="152" y="-329" type="line"/>
      <point x="394" y="-329" type="line"/>
      <point x="394" y="0" type="line"/>
      <point x="427.901" y="-7.92847"/>
      <point x="471.967" y="-13.0166"/>
      <point x="519.21" y="-13.0166" type="curve" smooth="yes"/>
      <point x="644.768" y="-13.0166"/>
      <point x="792.763" y="22.9231"/>
      <point x="832" y="137" type="curve"/>
      <point x="852" y="-1" type="line"/>
      <point x="1075" y="-1" type="line"/>
      <point x="1075" y="1121" type="line"/>
    </contour>
  </outline>
</glyph>
<glyph name="pi" format="1">
  <advance width="1516"/>
  <unicode hex="03C0"/>
  <outline>
    <contour>
      <point x="1264" y="141" type="curve" smooth="yes"/>
      <point x="1144.44" y="142.022"/>
      <point x="1076.97" y="223.088"/>
      <point x="1076.97" y="422.999" type="curve" smooth="yes"/>
      <point x="1076.97" y="547.105"/>
      <point x="1102.87" y="709.045"/>
      <point x="1149" y="923" type="curve"/>
      <point x="1383" y="923" type="line"/>
      <point x="1385" y="1121" type="line"/>
      <point x="487" y="1121" type="line" smooth="yes"/>
      <point x="233" y="1121"/>
      <point x="125" y="1014"/>
      <point x="125" y="782" type="curve"/>
      <point x="255" y="782" type="line"/>
      <point x="268" y="863"/>
      <point x="310" y="923"/>
      <point x="395" y="923" type="curve" smooth="yes"/>
      <point x="520" y="923" type="line"/>
      <point x="423" y="398" type="line" smooth="yes"/>
      <point x="382" y="175"/>
      <point x="261" y="127"/>
      <point x="168" y="127" type="curve"/>
      <point x="168" y="0" type="line"/>
      <point x="537" y="0"/>
      <point x="596" y="95"/>
      <point x="618" y="329" type="curve" smooth="yes"/>
      <point x="675" y="923" type="line"/>
      <point x="1021" y="923" type="line"/>
      <point x="954" y="712"/>
      <point x="888" y="489"/>
      <point x="888" y="304" type="curve" smooth="yes"/>
      <point x="889" y="83"/>
      <point x="1013" y="-26"/>
      <point x="1164" y="-26" type="curve" smooth="yes"/>
      <point x="1233" y="-26"/>
      <point x="1313" y="-2"/>
      <point x="1390" y="49" type="curve"/>
      <point x="1390" y="161" type="line"/>
      <point x="1344" y="148"/>
      <point x="1301" y="141"/>
    </contour>
  </outline>
</glyph>
<glyph name="emdash" format="1">
  <advance width="1808"/>
  <unicode hex="2014"/>
  <outline>
    <contour>
      <point x="129" y="566" type="line"/>
      <point x="1675" y="566" type="line"/>
      <point x="1675" y="783" type="line"/>
      <point x="129" y="783" type="line"/>
    </contour>
  </outline>
</glyph>
<glyph name="quotedblleft" format="1">
  <advance width="1084"/>
  <unicode hex="201C"/>
  <outline>
    <contour>
      <point x="772" y="998" type="curve" smooth="yes"/>
      <point x="883" y="998"/>
      <point x="935" y="1079"/>
      <point x="935" y="1141" type="curve" smooth="yes"/>
      <point x="935" y="1245"/>
      <point x="886" y="1297"/>
      <point x="799" y="1298" type="curve"/>
      <point x="799" y="1399"/>
      <point x="854" y="1488"/>
      <point x="937" y="1488" type="curve"/>
      <point x="937" y="1561" type="line"/>
      <point x="758" y="1561"/>
      <point x="626" y="1388"/>
      <point x="626" y="1205" type="curve" smooth="yes"/>
      <point x="626" y="1090"/>
      <point x="680" y="998"/>
    </contour>
    <contour>
      <point x="305" y="998" type="curve" smooth="yes"/>
      <point x="393" y="998"/>
      <point x="454" y="1074"/>
      <point x="454" y="1141" type="curve" smooth="yes"/>
      <point x="454" y="1245"/>
      <point x="404" y="1297"/>
      <point x="315" y="1298" type="curve"/>
      <point x="316" y="1399"/>
      <point x="370" y="1488"/>
      <point x="456" y="1488" type="curve"/>
      <point x="456" y="1561" type="line"/>
      <point x="272" y="1561"/>
      <point x="145" y="1388"/>
      <point x="145" y="1205" type="curve" smooth="yes"/>
      <point x="145" y="1071"/>
      <point x="198" y="998"/>
    </contour>
  </outline>
</glyph>
<glyph name="daggerdbl" format="1">
  <advance width="1235"/>
  <unicode hex="2021"/>
  <outline>
    <contour>
      <point x="617" y="-38" type="curve" smooth="yes"/>
      <point x="707" y="-38"/>
      <point x="769" y="19"/>
      <point x="769" y="116" type="curve" smooth="yes"/>
      <point x="769" y="197"/>
      <point x="721" y="342"/>
      <point x="680" y="469" type="curve"/>
      <point x="731" y="450"/>
      <point x="843" y="382"/>
      <point x="975" y="382" type="curve" smooth="yes"/>
      <point x="1042" y="382"/>
      <point x="1081" y="442"/>
      <point x="1081" y="504" type="curve" smooth="yes"/>
      <point x="1081" y="579"/>
      <point x="1036" y="625"/>
      <point x="955" y="625" type="curve" smooth="yes"/>
      <point x="905" y="625"/>
      <point x="811" y="594"/>
      <point x="681" y="541" type="curve"/>
      <point x="681" y="982" type="line"/>
      <point x="807" y="928"/>
      <point x="899" y="897"/>
      <point x="953" y="897" type="curve" smooth="yes"/>
      <point x="1031" y="897"/>
      <point x="1081" y="939"/>
      <point x="1081" y="1007" type="curve" smooth="yes"/>
      <point x="1081" y="1094"/>
      <point x="1042" y="1142"/>
      <point x="964" y="1142" type="curve" smooth="yes"/>
      <point x="915" y="1142"/>
      <point x="819" y="1110"/>
      <point x="680" y="1054" type="curve"/>
      <point x="721" y="1197"/>
      <point x="769" y="1328"/>
      <point x="769" y="1409" type="curve" smooth="yes"/>
      <point x="769" y="1502"/>
      <point x="706" y="1561"/>
      <point x="617" y="1561" type="curve" smooth="yes"/>
      <point x="527" y="1561"/>
      <point x="465" y="1504"/>
      <point x="465" y="1407" type="curve" smooth="yes"/>
      <point x="465" y="1313"/>
      <point x="535" y="1109"/>
      <point x="553" y="1055" type="curve"/>
      <point x="422" y="1111"/>
      <point x="330" y="1142"/>
      <point x="281" y="1142" type="curve" smooth="yes"/>
      <point x="198" y="1142"/>
      <point x="153" y="1094"/>
      <point x="153" y="1018" type="curve" smooth="yes"/>
      <point x="153" y="940"/>
      <point x="195" y="897"/>
      <point x="281" y="897" type="curve" smooth="yes"/>
      <point x="330" y="897"/>
      <point x="422" y="927"/>
      <point x="553" y="982" type="curve"/>
      <point x="553" y="541" type="line"/>
      <point x="424" y="596"/>
      <point x="333" y="625"/>
      <point x="282" y="625" type="curve" smooth="yes"/>
      <point x="196" y="625"/>
      <point x="153" y="582"/>
      <point x="153" y="504" type="curve" smooth="yes"/>
      <point x="153" y="428"/>
      <point x="199" y="382"/>
      <point x="281" y="382" type="curve" smooth="yes"/>
      <point x="332" y="382"/>
      <point x="423" y="413"/>
      <point x="553" y="468" type="curve"/>
      <point x="495" y="278"/>
      <point x="465" y="197"/>
      <point x="465" y="114" type="curve" smooth="yes"/>
      <point x="465" y="19"/>
      <point x="528" y="-38"/>
    </contour>
  </outline>
</glyph>
<glyph name="bullet" format="1">
  <advance width="992"/>
  <unicode hex="2022"/>
  <outline>
    <contour>
      <point x="501" y="286" type="curve" smooth="yes"/>
      <point x="735" y="286"/>
      <point x="853" y="460"/>
      <point x="853" y="671" type="curve" smooth="yes"/>
      <point x="853" y="884"/>
      <point x="735" y="1057"/>
      <point x="503" y="1057" type="curve" smooth="yes"/>
      <point x="263" y="1057"/>
      <point x="136" y="881"/>
      <point x="136" y="670" type="curve" smooth="yes"/>
      <point x="136" y="460"/>
      <point x="261" y="286"/>
    </contour>
  </outline>
</glyph>
<glyph name="guilsinglright" format="1">
  <advance width="877"/>
  <unicode hex="203A"/>
  <outline>
    <contour>
      <point x="156" y="245" type="curve" smooth="yes"/>
      <point x="172" y="245"/>
      <point x="191" y="251"/>
      <point x="209" y="265" type="curve" smooth="yes"/>
      <point x="714" y="655" type="line" smooth="yes"/>
      <point x="764" y="693"/>
      <point x="787" y="737"/>
      <point x="787" y="780" type="curve" smooth="yes"/>
      <point x="787" y="828"/>
      <point x="762" y="870"/>
      <point x="714" y="906" type="curve" smooth="yes"/>
      <point x="209" y="1296" type="line" smooth="yes"/>
      <point x="192.747" y="1309"/>
      <point x="178.475" y="1317.38"/>
      <point x="164.574" y="1317.38" type="curve" smooth="yes"/>
      <point x="161.37" y="1317.38"/>
      <point x="158.185" y="1316.94"/>
      <point x="155" y="1316" type="curve"/>
      <point x="152.434" y="1316.34"/>
      <point x="149.909" y="1316.5"/>
      <point x="147.431" y="1316.5" type="curve" smooth="yes"/>
      <point x="113.216" y="1316.5"/>
      <point x="88" y="1285.16"/>
      <point x="88" y="1246" type="curve" smooth="yes"/>
      <point x="88" y="1232"/>
      <point x="93" y="1209"/>
      <point x="113" y="1190" type="curve" smooth="yes"/>
      <point x="517" y="781" type="line"/>
      <point x="113" y="371" type="line" smooth="yes"/>
      <point x="96" y="354"/>
      <point x="88" y="333"/>
      <point x="88" y="315" type="curve" smooth="yes"/>
      <point x="88" y="278"/>
      <point x="117" y="245"/>
    </contour>
  </outline>
</glyph>
<glyph name="Euro" format="1">
  <advance width="1357"/>
  <unicode hex="20AC"/>
  <outline>
    <contour>
      <point x="783" y="-26" type="curve" smooth="yes"/>
      <point x="1108" y="-26"/>
      <point x="1255" y="42"/>
      <point x="1285" y="336" type="curve" smooth="yes"/>
      <point x="1289" y="364"/>
      <point x="1292" y="411"/>
      <point x="1293" y="444" type="curve"/>
      <point x="1068" y="467" type="line"/>
      <point x="1059" y="355"/>
      <point x="1059" y="250"/>
      <point x="1024" y="205" type="curve" smooth="yes"/>
      <point x="989" y="160"/>
      <point x="909" y="142"/>
      <point x="757" y="142" type="curve" smooth="yes"/>
      <point x="494" y="142"/>
      <point x="413" y="190"/>
      <point x="406" y="282" type="curve" smooth="yes"/>
      <point x="401" y="357"/>
      <point x="399" y="478"/>
      <point x="398" y="554" type="curve"/>
      <point x="901" y="554" type="line"/>
      <point x="921" y="661" type="line"/>
      <point x="398" y="661" type="line"/>
      <point x="398" y="828" type="line"/>
      <point x="901" y="828" type="line"/>
      <point x="921" y="935" type="line"/>
      <point x="399" y="935" type="line"/>
      <point x="401" y="1017"/>
      <point x="403" y="1141"/>
      <point x="406" y="1221" type="curve" smooth="yes"/>
      <point x="413" y="1348"/>
      <point x="535" y="1360"/>
      <point x="756" y="1360" type="curve" smooth="yes"/>
      <point x="879" y="1360"/>
      <point x="957" y="1359"/>
      <point x="997" y="1323" type="curve" smooth="yes"/>
      <point x="1039" y="1288"/>
      <point x="1053" y="1185"/>
      <point x="1066" y="1048" type="curve"/>
      <point x="1293" y="1078" type="line"/>
      <point x="1291" y="1102"/>
      <point x="1288" y="1142"/>
      <point x="1285" y="1163" type="curve" smooth="yes"/>
      <point x="1250" y="1472"/>
      <point x="1086" y="1528"/>
      <point x="767" y="1528" type="curve" smooth="yes"/>
      <point x="329" y="1528"/>
      <point x="179" y="1457"/>
      <point x="154" y="1087" type="curve" smooth="yes"/>
      <point x="152" y="1049"/>
      <point x="150" y="980"/>
      <point x="149" y="935" type="curve"/>
      <point x="-1" y="935" type="line"/>
      <point x="-21" y="828" type="line"/>
      <point x="147" y="828" type="line"/>
      <point x="147" y="661" type="line"/>
      <point x="-1" y="661" type="line"/>
      <point x="-21" y="554" type="line"/>
      <point x="149" y="554" type="line"/>
      <point x="151" y="519"/>
      <point x="153" y="458"/>
      <point x="155" y="427" type="curve" smooth="yes"/>
      <point x="181" y="79"/>
      <point x="336" y="-26"/>
    </contour>
  </outline>
</glyph>
<glyph name="uni2113" format="1">
  <advance width="1099"/>
  <unicode hex="2113"/>
  <outline>
    <contour>
      <point x="741.146" y="1509.02" type="curve" smooth="yes"/>
      <point x="848.381" y="1509.02"/>
      <point x="897.331" y="1442.77"/>
      <point x="897.331" y="1310.58" type="curve" smooth="yes"/>
      <point x="897.331" y="1103.07"/>
      <point x="752.628" y="959.402"/>
      <point x="528" y="814" type="curve"/>
      <point x="528" y="1144" type="line" smooth="yes"/>
      <point x="528" y="1449"/>
      <point x="632" y="1509"/>
      <point x="738" y="1509" type="curve" smooth="yes"/>
      <point x="739.054" y="1509.01"/>
      <point x="740.102" y="1509.02"/>
    </contour>
    <contour>
      <point x="288" y="253" type="line" smooth="yes"/>
      <point x="288" y="6.73786"/>
      <point x="444.615" y="-17.0781"/>
      <point x="632.291" y="-17.0781" type="curve" smooth="yes"/>
      <point x="722.266" y="-17.0781"/>
      <point x="857.125" y="-1"/>
      <point x="858" y="-1" type="curve" smooth="yes"/>
      <point x="858" y="147" type="line"/>
      <point x="809.545" y="142.416"/>
      <point x="768.808" y="140.405"/>
      <point x="734.385" y="140.405" type="curve" smooth="yes"/>
      <point x="716.237" y="140.405"/>
      <point x="699.844" y="140.964"/>
      <point x="685" y="142" type="curve" smooth="yes"/>
      <point x="542" y="145"/>
      <point x="526" y="193"/>
      <point x="526" y="272" type="curve" smooth="yes"/>
      <point x="526" y="656" type="line"/>
      <point x="863.553" y="858.911"/>
      <point x="1077.94" y="1065.42"/>
      <point x="1077.94" y="1330.93" type="curve" smooth="yes"/>
      <point x="1077.94" y="1557.44"/>
      <point x="923.87" y="1683"/>
      <point x="734" y="1683" type="curve" smooth="yes"/>
      <point x="521" y="1683"/>
      <point x="288" y="1540"/>
      <point x="288" y="1089" type="curve" smooth="yes"/>
      <point x="288" y="656" type="line"/>
      <point x="121" y="537" type="line"/>
      <point x="121" y="395" type="line"/>
      <point x="288" y="518" type="line"/>
    </contour>
  </outline>
</glyph>
<glyph name="partialdiff" format="1">
  <advance width="1215"/>
  <unicode hex="2202"/>
  <outline>
    <contour>
      <point x="584" y="155" type="curve" smooth="yes"/>
      <point x="464" y="155"/>
      <point x="370" y="239"/>
      <point x="370" y="397" type="curve" smooth="yes"/>
      <point x="370" y="514"/>
      <point x="436" y="727"/>
      <point x="632" y="727" type="curve" smooth="yes"/>
      <point x="721" y="727"/>
      <point x="780" y="683"/>
      <point x="859" y="585" type="curve"/>
      <point x="860" y="576"/>
      <point x="860" y="567"/>
      <point x="860" y="558" type="curve" smooth="yes"/>
      <point x="860" y="446"/>
      <point x="807" y="155"/>
    </contour>
    <contour>
      <point x="553" y="-24" type="curve" smooth="yes"/>
      <point x="1000" y="-24"/>
      <point x="1095" y="388"/>
      <point x="1095" y="674" type="curve" smooth="yes"/>
      <point x="1095" y="1073"/>
      <point x="917" y="1432"/>
      <point x="351" y="1432" type="curve"/>
      <point x="335" y="1278" type="line"/>
      <point x="723" y="1278"/>
      <point x="871" y="1014"/>
      <point x="876" y="780" type="curve"/>
      <point x="827" y="864"/>
      <point x="736" y="908"/>
      <point x="629" y="908" type="curve" smooth="yes"/>
      <point x="288" y="908"/>
      <point x="136" y="613"/>
      <point x="136" y="395" type="curve" smooth="yes"/>
      <point x="136" y="168"/>
      <point x="274" y="-24"/>
    </contour>
  </outline>
</glyph>
<glyph name="product" format="1">
  <advance width="1417"/>
  <unicode hex="220F"/>
  <outline>
    <contour>
      <point x="416" y="1316" type="line"/>
      <point x="1001" y="1316" type="line"/>
      <point x="1001" y="-17" type="line"/>
      <point x="1277" y="-17" type="line"/>
      <point x="1277" y="1503" type="line"/>
      <point x="140" y="1503" type="line"/>
      <point x="140" y="-17" type="line"/>
      <point x="416" y="-17" type="line"/>
    </contour>
  </outline>
</glyph>
<glyph name="summation" format="1">
  <advance width="1317"/>
  <unicode hex="2211"/>
  <outline>
    <contour>
      <point x="162" y="-16" type="line"/>
      <point x="1163" y="-16" type="line"/>
      <point x="1163" y="173" type="line"/>
      <point x="427" y="173" type="line"/>
      <point x="938" y="686" type="line"/>
      <point x="938" y="793" type="line"/>
      <point x="427" y="1322" type="line"/>
      <point x="1157" y="1322" type="line"/>
      <point x="1157" y="1503" type="line"/>
      <point x="162" y="1503" type="line"/>
      <point x="162" y="1316" type="line"/>
      <point x="699" y="748" type="line"/>
      <point x="162" y="191" type="line"/>
    </contour>
  </outline>
</glyph>
<glyph name="approxequal" format="1">
  <advance width="1120"/>
  <unicode hex="2248"/>
  <outline>
    <contour>
      <point x="835" y="743" type="curve" smooth="yes"/>
      <point x="840.614" y="742.649"/>
      <point x="846.072" y="742.469"/>
      <point x="851.376" y="742.469" type="curve" smooth="yes"/>
      <point x="951.907" y="742.469"/>
      <point x="997.401" y="807.125"/>
      <point x="1005" y="999" type="curve"/>
      <point x="881" y="999" type="line"/>
      <point x="876" y="920"/>
      <point x="844" y="894"/>
      <point x="791" y="894" type="curve" smooth="yes"/>
      <point x="684" y="894"/>
      <point x="490" y="1002"/>
      <point x="265" y="1014" type="curve" smooth="yes"/>
      <point x="258.995" y="1014.31"/>
      <point x="253.056" y="1014.48"/>
      <point x="247.193" y="1014.48" type="curve" smooth="yes"/>
      <point x="158.348" y="1014.48"/>
      <point x="87.1334" y="974.205"/>
      <point x="74" y="750" type="curve"/>
      <point x="198" y="750" type="line"/>
      <point x="197" y="835"/>
      <point x="231" y="864"/>
      <point x="290" y="864" type="curve" smooth="yes"/>
      <point x="405" y="864"/>
      <point x="622" y="754"/>
    </contour>
    <contour>
      <point x="835" y="539" type="curve" smooth="yes"/>
      <point x="725.632" y="539"/>
      <point x="518.808" y="659.671"/>
      <point x="288.384" y="659.671" type="curve" smooth="yes"/>
      <point x="199.961" y="659.671"/>
      <point x="130.076" y="617.933"/>
      <point x="118" y="395" type="curve"/>
      <point x="242" y="395" type="line"/>
      <point x="241" y="480"/>
      <point x="275" y="509"/>
      <point x="334" y="509" type="curve" smooth="yes"/>
      <point x="449" y="509"/>
      <point x="665" y="400"/>
      <point x="879" y="388" type="curve" smooth="yes"/>
      <point x="883.92" y="387.734"/>
      <point x="888.72" y="387.598"/>
      <point x="893.402" y="387.598" type="curve" smooth="yes"/>
      <point x="994.35" y="387.598"/>
      <point x="1040.35" y="450.953"/>
      <point x="1048" y="644" type="curve"/>
      <point x="925" y="644" type="line"/>
      <point x="920" y="565"/>
      <point x="888" y="539"/>
    </contour>
  </outline>
</glyph>
<glyph name="notequal" format="1">
  <advance width="681"/>
  <unicode hex="2260"/>
  <outline>
    <contour>
      <point x="146" y="174" type="line"/>
      <point x="325" y="174" type="line"/>
      <point x="409" y="414" type="line"/>
      <point x="812" y="414" type="line"/>
      <point x="812" y="603" type="line"/>
      <point x="475" y="603" type="line"/>
      <point x="540" y="792" type="line"/>
      <point x="812" y="792" type="line"/>
      <point x="812" y="981" type="line"/>
      <point x="606" y="981" type="line"/>
      <point x="691" y="1224" type="line"/>
      <point x="513" y="1224" type="line"/>
      <point x="428" y="981" type="line"/>
      <point x="-23" y="981" type="line"/>
      <point x="-23" y="792" type="line"/>
      <point x="362" y="792" type="line"/>
      <point x="296" y="603" type="line"/>
      <point x="-23" y="603" type="line"/>
      <point x="-23" y="414" type="line"/>
      <point x="230" y="414" type="line"/>
    </contour>
  </outline>
</glyph>
